HIERARCHY
ROOT Hips
{
	OFFSET 0.00000 0.00000 0.00000
	CHANNELS 6 Xposition Yposition Zposition Zrotation Yrotation Xrotation 
	JOINT RightUpLegDummy
	{
		OFFSET 0 0 0
		CHANNELS 3 Zrotation Yrotation Xrotation
		JOINT RightUpLeg
		{
			OFFSET -3.52197 -3.41223 0.04002
			CHANNELS 3 Zrotation Yrotation Xrotation
			JOINT RightLeg
			{
				OFFSET 0.00006 -17.42390 1.60435
				CHANNELS 3 Zrotation Yrotation Xrotation
				JOINT RightFoot
				{
					OFFSET 0.06153 -16.50078 -1.63901
					CHANNELS 3 Zrotation Yrotation Xrotation
					JOINT RightToes
					{
						OFFSET 0.00298 -1.73825 3.34613
						CHANNELS 3 Zrotation Yrotation Xrotation
						End Site
						{
							OFFSET 0.00480 -0.05416 3.85043
						}
					}
				}
			}
		}
	}
	JOINT SpineDummy
	{
		OFFSET 0 0 0
		CHANNELS 3 Zrotation Yrotation Xrotation
		JOINT Spine
		{
			OFFSET 0.00000 4.68130 0.00000
			CHANNELS 3 Zrotation Yrotation Xrotation
			JOINT Spine1
			{
				OFFSET -0.00000 10.10138 0.05002
				CHANNELS 3 Zrotation Yrotation Xrotation
				JOINT HEadDummy
				{
					OFFSET 0 0 0
					CHANNELS 3 Zrotation Yrotation Xrotation
					JOINT Head
					{
						OFFSET -0.00000 3.43865 0.00438
						CHANNELS 3 Zrotation Yrotation Xrotation
						End Site
						{
							OFFSET -0.11417 5.02924 0.98962
						}
					}
				}
				JOINT LeftShoulder1Dummy
				{
					OFFSET 0 0 0
					CHANNELS 3 Zrotation Yrotation Xrotation
					JOINT LeftShoulder1
					{
						OFFSET 3.53937 -0.14262 -0.08662
						CHANNELS 3 Zrotation Yrotation Xrotation
						JOINT LeftArm
						{
							OFFSET 4.04833 -0.00133 0.12681
							CHANNELS 3 Zrotation Yrotation Xrotation
							JOINT LeftForeArm
							{
								OFFSET 10.33880 -0.01036 -0.55515
								CHANNELS 3 Zrotation Yrotation Xrotation
								JOINT LeftHand
								{
									OFFSET 8.69677 0.07543 0.40060
									CHANNELS 3 Zrotation Yrotation Xrotation
									End Site
									{
										OFFSET 5.28377 -0.21905 0.59205
									}
								}
							}
						}
					}
				}
				JOINT RightShoulderDummy
				{
					OFFSET 0 0 0
					CHANNELS 3 Zrotation Yrotation Xrotation
					JOINT RightShoulder
					{
						OFFSET -3.53937 -0.14262 -0.08660
						CHANNELS 3 Zrotation Yrotation Xrotation
						JOINT RightArm
						{
							OFFSET -4.04833 -0.00133 0.12683
							CHANNELS 3 Zrotation Yrotation Xrotation
							JOINT RightForeArm
							{
								OFFSET -10.37987 -0.01039 -0.55511
								CHANNELS 3 Zrotation Yrotation Xrotation
								JOINT RightHand
								{
									OFFSET -8.67398 0.07538 0.40058
									CHANNELS 3 Zrotation Yrotation Xrotation
									End Site
									{
										OFFSET -5.24810 -0.21916 0.59204
									}
								}
							}
						}
					}
				}
			}
		}
	}
	JOINT LeftUpLegDummy
	{
		OFFSET 0 0 0
		CHANNELS 3 Zrotation Yrotation Xrotation
		JOINT LeftUpLeg
		{
			OFFSET 3.52197 -3.41223 0.04002
			CHANNELS 3 Zrotation Yrotation Xrotation
			JOINT LeftLeg
			{
				OFFSET -0.00012 -17.42399 1.60337
				CHANNELS 3 Zrotation Yrotation Xrotation
				JOINT LeftFoot
				{
					OFFSET -0.09972 -16.50070 -1.63802
					CHANNELS 3 Zrotation Yrotation Xrotation
					JOINT LeftToes
					{
						OFFSET -0.01575 -1.73823 3.34611
						CHANNELS 3 Zrotation Yrotation Xrotation
						End Site
						{
							OFFSET 0.03150 -0.01868 3.85031
						}
					}
				}
			}
		}
	}
}
MOTION
Frames: 14
Frame Time: 0.033333
-19.0456 37.9336 -17.2016 -4.2383 -33.9606 -3.9286 0.0000 0.0000 0.0000 -6.5881 -8.8110 -1.1765 -4.7373 -2.0641 58.6487 9.6004 -2.2218 15.4710 0.0000 -0.0000 0.0000 0.0000 0.0000 0.0000 1.2493 0.3357 13.1519 1.6495 0.1996 -3.8301 -0.0000 0.0000 -0.0000 -5.2862 15.4267 3.2411 -0.0000 0.0000 -0.0000 -33.8278 -2.4149 2.3591 -42.8380 -8.6460 -22.2318 -8.8995 5.2059 45.9566 15.3717 -5.0538 -1.3470 -0.0000 0.0000 -0.0000 34.2925 5.0816 3.4604 37.6072 2.2333 -17.0523 10.7557 3.9064 18.2063 -8.8744 2.2864 -0.5674 0.0000 0.0000 0.0000 -9.0119 -1.3858 -11.0425 5.0324 16.5320 21.9638 14.3085 -0.3086 -8.4711 0.0000 0.0000 -0.0000
-19.7690 37.9993 -16.0460 -5.1346 -30.0110 -3.9913 0.0000 0.0000 0.0000 -4.7915 -6.4269 -5.5460 -5.5584 -2.2607 60.6950 10.2863 -1.9577 10.5511 0.0000 -0.0000 0.0000 0.0000 0.0000 0.0000 1.6145 -0.4868 13.3351 2.5767 -0.7659 -3.6291 -0.0000 0.0000 -0.0000 -5.4234 15.4314 3.3957 -0.0000 0.0000 -0.0000 -34.0087 -2.4423 2.3809 -44.0030 -10.6767 -19.0681 -10.3480 5.2161 44.9821 15.4915 -5.7506 -1.4460 -0.0000 0.0000 -0.0000 34.3974 5.0898 3.4728 37.9433 1.3956 -16.4454 11.0023 3.1869 19.6239 -7.6643 2.2882 -0.4874 0.0000 0.0000 0.0000 -9.0339 -1.6147 -8.4283 4.7961 13.5521 22.7756 15.0948 -0.0232 -10.6698 0.0000 0.0000 -0.0000
-20.5091 38.0292 -14.8629 -5.9051 -26.0964 -4.0889 0.0000 0.0000 0.0000 -3.2078 -3.5736 -9.5864 -9.3715 -4.0163 60.5138 8.4075 -1.3956 7.7788 0.0000 -0.0000 0.0000 0.0000 0.0000 0.0000 1.5351 -1.1040 13.2808 3.8337 -1.6088 -3.3771 -0.0000 0.0000 -0.0000 -5.1466 14.9923 3.6818 -0.0000 0.0000 -0.0000 -33.9121 -2.4307 2.3704 -45.3473 -13.0967 -15.8703 -11.5206 5.2514 44.3960 15.7284 -6.3062 -1.5403 -0.0000 0.0000 -0.0000 34.5363 5.0953 3.4872 38.3014 0.2480 -16.1293 11.0965 3.1005 21.0330 -7.0018 2.0845 -0.4324 0.0000 0.0000 0.0000 -8.5828 -1.3166 -5.8332 3.7340 10.0818 23.5855 16.4430 0.3180 -12.9952 0.0000 0.0000 -0.0000
-21.2488 38.0737 -13.6290 -6.5523 -22.7158 -4.3512 0.0000 0.0000 0.0000 -2.0144 -0.2537 -13.0773 -13.2295 -6.4619 58.1907 4.6602 -0.6470 4.8627 0.0000 -0.0000 0.0000 0.0000 0.0000 0.0000 1.2747 -1.5033 13.1054 5.0366 -2.2619 -2.9346 -0.0000 0.0000 -0.0000 -4.7420 14.6092 3.7512 -0.0000 0.0000 -0.0000 -33.8643 -2.3835 2.3487 -46.3976 -15.3721 -12.7287 -12.5426 5.0019 43.2720 15.5096 -6.8447 -1.5861 -0.0000 0.0000 -0.0000 34.6834 5.1182 3.5093 38.7658 -0.5890 -16.3926 11.0004 2.7576 21.9332 -7.3409 2.0426 -0.4525 0.0000 0.0000 0.0000 -7.6504 -0.5385 -2.7349 1.9969 6.5947 23.5952 17.9451 0.6147 -14.6744 0.0000 0.0000 -0.0000
-21.9351 38.1763 -12.3682 -7.1304 -19.4013 -4.7472 0.0000 0.0000 0.0000 -1.3799 2.5472 -15.6110 -15.5020 -9.4972 53.1093 3.0046 -0.3273 1.5454 0.0000 -0.0000 0.0000 0.0000 0.0000 0.0000 1.0529 -1.9679 12.9402 6.0278 -2.9755 -2.3984 -0.0000 0.0000 -0.0000 -4.5386 14.4735 3.4555 -0.0000 0.0000 -0.0000 -34.0411 -2.3849 2.3598 -46.8840 -17.3678 -9.9036 -13.3432 3.1727 41.8140 15.0363 -7.2822 -1.5892 -0.0000 0.0000 -0.0000 34.8312 5.1635 3.5408 39.1848 -0.8874 -17.2604 10.7451 1.8072 22.0461 -8.2631 2.2703 -0.5258 0.0000 0.0000 0.0000 -6.4594 0.2626 0.8743 0.3333 3.3289 22.5834 19.1602 0.8424 -15.7644 0.0000 0.0000 -0.0000
-22.5450 38.2762 -11.1024 -7.6298 -16.1008 -5.0765 0.0000 0.0000 0.0000 -1.1295 4.4795 -17.0678 -15.8849 -13.2256 45.1238 3.7472 -0.3615 -0.3626 0.0000 -0.0000 0.0000 0.0000 0.0000 0.0000 1.0420 -2.4087 12.7417 6.6655 -3.5993 -1.9486 -0.0000 0.0000 -0.0000 -4.4562 14.2239 3.0695 -0.0000 0.0000 -0.0000 -34.0880 -2.4572 2.3916 -47.3175 -19.3097 -7.2047 -13.8177 0.3569 40.4653 14.8789 -7.5108 -1.5995 -0.0000 0.0000 -0.0000 34.9229 5.2002 3.5638 39.5267 -1.0768 -18.2941 10.4403 0.8769 21.5314 -8.7644 2.3434 -0.5638 0.0000 0.0000 0.0000 -5.0943 0.9967 4.3663 -1.1429 0.0435 21.3640 19.8831 1.0445 -16.7169 0.0000 0.0000 -0.0000
-23.0857 38.3577 -9.8244 -7.8180 -13.2018 -5.2694 0.0000 0.0000 0.0000 -1.1469 5.5972 -17.5235 -14.3019 -17.3635 34.5115 5.3266 -0.5001 -0.7098 0.0000 -0.0000 0.0000 0.0000 0.0000 0.0000 1.0147 -2.5989 12.5385 6.9901 -3.8905 -1.7618 -0.0000 0.0000 -0.0000 -4.2810 13.7632 2.8493 -0.0000 0.0000 -0.0000 -33.8442 -2.5120 2.3987 -48.0537 -21.0591 -3.9460 -13.9771 -1.9801 38.6951 15.0784 -7.6122 -1.6344 -0.0000 0.0000 -0.0000 34.8841 5.1963 3.5588 39.8310 -1.4075 -18.9411 10.2438 0.3799 21.0787 -8.5317 2.1137 -0.5334 0.0000 0.0000 0.0000 -3.8412 1.6885 7.7354 -2.5781 -3.3441 19.7681 20.3064 1.1228 -17.0301 0.0000 0.0000 -0.0000
-23.5607 38.5002 -8.5441 -7.6007 -10.7861 -5.3210 0.0000 0.0000 0.0000 -1.0991 5.0168 -17.0611 -10.1285 -19.6912 21.3212 8.1180 -0.7722 -0.5429 0.0000 -0.0000 0.0000 0.0000 0.0000 0.0000 0.6886 -2.6109 12.3583 7.2189 -3.9655 -1.8517 -0.0000 0.0000 -0.0000 -4.0779 13.4846 2.7169 -0.0000 0.0000 -0.0000 -33.7115 -2.4990 2.3855 -48.6275 -22.1402 -0.2114 -13.8733 -4.3865 36.2100 15.2425 -7.7343 -1.6683 -0.0000 0.0000 -0.0000 34.7778 5.1688 3.5382 39.9153 -1.5813 -19.1399 10.1933 -0.1972 21.3655 -8.3110 2.0079 -0.5122 0.0000 0.0000 0.0000 -2.9088 2.3129 11.3404 -3.6386 -6.5159 16.8957 20.3621 0.9566 -16.1153 0.0000 0.0000 -0.0000
-24.0033 38.6446 -7.2333 -7.2308 -8.7846 -5.2854 0.0000 0.0000 0.0000 -0.2275 1.8385 -15.8442 -4.2237 -16.0548 7.4895 12.5324 -1.1232 -1.1082 0.0000 -0.0000 0.0000 0.0000 0.0000 0.0000 0.2235 -2.5619 11.9806 7.4258 -3.9667 -1.9175 -0.0000 0.0000 -0.0000 -4.0221 13.5389 2.5097 -0.0000 0.0000 -0.0000 -33.9208 -2.4934 2.3960 -48.6866 -22.4653 3.1428 -13.5592 -6.5201 33.3897 15.3519 -7.8847 -1.6998 -0.0000 0.0000 -0.0000 34.7757 5.1645 3.5363 39.5524 -1.4314 -19.2497 10.1814 -1.2582 22.3075 -8.7465 2.1145 -0.5474 0.0000 0.0000 0.0000 -2.0826 2.9588 14.7374 -4.1402 -9.1837 14.0584 19.5688 0.6969 -14.8565 0.0000 0.0000 -0.0000
-24.4556 38.6564 -5.8375 -6.9368 -7.2169 -5.3720 0.0000 0.0000 0.0000 0.6767 -0.2150 -14.7940 0.0271 -8.0491 -1.2487 16.5781 -1.2044 -3.1840 0.0000 -0.0000 0.0000 0.0000 0.0000 0.0000 -0.1357 -2.3764 11.4191 7.5562 -3.8127 -1.8009 -0.0000 0.0000 -0.0000 -4.0847 13.6416 2.2679 -0.0000 0.0000 -0.0000 -34.1215 -2.5538 2.4323 -48.5531 -22.3781 4.1058 -13.3642 -7.2379 32.5045 15.7346 -7.9126 -1.7479 -0.0000 0.0000 -0.0000 34.8715 5.1839 3.5526 38.9248 -1.2501 -19.5727 10.0682 -2.3667 23.4076 -9.4632 1.9853 -0.5841 0.0000 0.0000 0.0000 -1.1794 3.6792 17.3652 -4.5342 -11.5826 13.4708 18.0697 0.5231 -14.0921 0.0000 0.0000 -0.0000
-24.9186 38.5618 -4.3902 -6.6996 -6.0602 -5.7767 0.0000 0.0000 0.0000 1.6443 0.4398 -14.6245 1.0685 -0.1807 -2.1084 16.5255 -0.9555 -4.9138 0.0000 -0.0000 0.0000 0.0000 0.0000 0.0000 -0.3897 -2.0021 11.1726 7.5738 -3.4192 -1.8037 -0.0000 0.0000 -0.0000 -4.1361 13.7108 2.1988 -0.0000 0.0000 -0.0000 -34.0917 -2.6135 2.4544 -48.4152 -22.0164 2.2105 -13.5345 -6.2396 34.3306 16.2923 -7.6931 -1.7836 -0.0000 0.0000 -0.0000 34.8695 5.1811 3.5513 38.4438 -1.1652 -20.2078 9.7656 -3.2397 24.6226 -9.8725 1.6297 -0.5829 0.0000 0.0000 0.0000 -0.3143 4.2871 19.5046 -5.0946 -13.6967 14.8913 16.7129 0.3495 -13.1831 0.0000 0.0000 -0.0000
-25.3762 38.3742 -2.8831 -6.4775 -5.0526 -6.5245 0.0000 0.0000 0.0000 2.9956 1.5888 -14.7921 0.8254 4.2350 2.3207 12.4022 -0.8766 -3.2613 0.0000 -0.0000 0.0000 0.0000 0.0000 0.0000 -0.4425 -1.6316 11.2314 7.3283 -2.9587 -1.9452 -0.0000 0.0000 -0.0000 -4.1600 14.0088 2.5346 -0.0000 0.0000 -0.0000 -34.1912 -2.5978 2.4543 -47.8186 -21.1992 -1.3878 -13.8270 -4.0701 37.2585 16.5540 -7.2880 -1.7588 -0.0000 0.0000 -0.0000 34.7750 5.1545 3.5321 38.1288 -0.8595 -21.1029 9.3199 -4.4258 26.1278 -10.1329 1.5585 -0.5932 0.0000 0.0000 0.0000 0.5931 4.6728 21.0456 -6.1263 -14.7008 18.3283 15.5729 0.1589 -12.0120 0.0000 0.0000 -0.0000
-25.7763 38.1179 -1.2997 -6.5686 -3.8089 -7.3454 0.0000 0.0000 0.0000 4.0024 2.3242 -14.8214 0.5292 4.0470 8.1502 9.6019 -1.0429 0.9288 0.0000 -0.0000 0.0000 0.0000 0.0000 0.0000 0.2901 -1.5296 11.1566 6.5557 -2.6614 -2.1017 -0.0000 0.0000 -0.0000 -4.1958 14.5357 3.3640 -0.0000 0.0000 -0.0000 -34.6604 -2.5391 2.4595 -46.6092 -19.9447 -6.1570 -13.8036 -0.8402 40.1800 16.6133 -6.8424 -1.7046 -0.0000 0.0000 -0.0000 34.7996 5.1502 3.5326 37.7076 -0.1718 -21.9372 8.9334 -5.6948 27.4907 -10.5417 1.8080 -0.6384 0.0000 0.0000 0.0000 2.2490 5.2617 21.0151 -8.2671 -14.7541 24.9544 12.8042 -0.1228 -9.6846 0.0000 0.0000 -0.0000
-26.0707 37.9184 0.2251 -7.2897 -2.2872 -7.9876 0.0000 0.0000 0.0000 4.6284 2.2060 -14.7385 0.3996 2.1357 13.3922 10.4082 -1.3255 3.3028 0.0000 -0.0000 0.0000 0.0000 0.0000 0.0000 2.1168 -1.6286 11.2388 5.3382 -2.4541 -2.5446 -0.0000 0.0000 -0.0000 -4.2411 14.8776 4.3261 -0.0000 0.0000 -0.0000 -35.0645 -2.5065 2.4710 -45.6331 -18.6102 -10.8896 -12.9455 3.0186 42.0714 17.1854 -6.2703 -1.6848 -0.0000 0.0000 -0.0000 34.8760 5.1645 3.5451 37.2603 0.6593 -22.1622 8.8517 -5.5880 27.8501 -10.7927 1.8658 -0.6589 0.0000 0.0000 0.0000 4.8925 6.2271 18.5355 -11.2258 -13.9480 34.6793 6.8316 -0.4265 -3.0226 0.0000 0.0000 -0.0000
